<svg width="80" height="80" viewBox="0 0 80 80" fill="none" xmlns="http://www.w3.org/2000/svg">
<path d="M9.35363e-06 23.6841C0.000726801 24.2095 0.203665 24.7145 0.566733 25.0944C0.929801 25.4742 1.42514 25.6997 1.95001 25.7241V27.5821C1.95107 28.37 2.26453 29.1253 2.82166 29.6824C3.37879 30.2396 4.13411 30.553 4.92201 30.5541H9.40801V68.0001H9.13801C8.34994 68.0022 7.59488 68.3168 7.03848 68.8749C6.48207 69.433 6.16974 70.189 6.17001 70.9771V72.8301H4.12401C3.54873 72.8309 2.99725 73.0598 2.59046 73.4666C2.18368 73.8733 1.9548 74.4248 1.95401 75.0001V77.8301C1.9548 78.4054 2.18368 78.9569 2.59046 79.3636C2.99725 79.7704 3.54873 79.9993 4.12401 80.0001H36.769C37.0798 80.0001 37.3779 79.8766 37.5977 79.6568C37.8175 79.437 37.941 79.1389 37.941 78.8281C37.941 78.5173 37.8175 78.2192 37.5977 77.9994C37.3779 77.7796 37.0798 77.6561 36.769 77.6561H4.30001V75.1741H74.709V77.6561H42.238C41.9272 77.6561 41.6291 77.7796 41.4093 77.9994C41.1895 78.2192 41.066 78.5173 41.066 78.8281C41.066 79.1389 41.1895 79.437 41.4093 79.6568C41.6291 79.8766 41.9272 80.0001 42.238 80.0001H74.883C75.4583 79.9993 76.0098 79.7704 76.4166 79.3636C76.8233 78.9569 77.0522 78.4054 77.053 77.8301V75.0001C77.0522 74.4248 76.8233 73.8733 76.4166 73.4666C76.0098 73.0598 75.4583 72.8309 74.883 72.8301H72.837V70.9771C72.8373 70.1883 72.5244 69.4317 71.9671 68.8735C71.4099 68.3153 70.6538 68.0012 69.865 68.0001H69.595V51.3881C69.595 51.2342 69.5647 51.0818 69.5058 50.9396C69.4469 50.7974 69.3606 50.6682 69.2517 50.5594C69.1429 50.4505 69.0137 50.3642 68.8715 50.3053C68.7293 50.2464 68.5769 50.2161 68.423 50.2161C68.2691 50.2161 68.1167 50.2464 67.9745 50.3053C67.8323 50.3642 67.7031 50.4505 67.5943 50.5594C67.4855 50.6682 67.3991 50.7974 67.3402 50.9396C67.2813 51.0818 67.251 51.2342 67.251 51.3881V68.0001H62.02V30.5531H67.25V45.9191C67.25 46.2299 67.3735 46.528 67.5933 46.7478C67.8131 46.9676 68.1112 47.0911 68.422 47.0911C68.7328 47.0911 69.0309 46.9676 69.2507 46.7478C69.4705 46.528 69.594 46.2299 69.594 45.9191V30.5531H74.08C74.8679 30.552 75.6232 30.2386 76.1804 29.6814C76.7375 29.1243 77.0509 28.369 77.052 27.5811V25.7231C77.5769 25.6987 78.0722 25.4732 78.4353 25.0934C78.7984 24.7135 79.0013 24.2085 79.002 23.6831V21.2001C79.0032 20.8257 78.9011 20.4582 78.7071 20.138C78.513 19.8178 78.2345 19.5573 77.902 19.3851L41.354 0.450098C40.7822 0.154346 40.1478 0 39.504 0C38.8602 0 38.2258 0.154346 37.654 0.450098L1.10801 19.3811C0.773465 19.5525 0.492886 19.8132 0.29733 20.1342C0.101774 20.4553 -0.00112964 20.8242 9.35363e-06 21.2001V23.6881V23.6841ZM69.865 70.3491C70.0312 70.3512 70.19 70.4181 70.3075 70.5356C70.425 70.6531 70.4919 70.8119 70.494 70.9781V72.8301H8.51301V70.9771C8.51508 70.8109 8.58202 70.6521 8.69953 70.5346C8.81705 70.4171 8.97583 70.3502 9.14201 70.3481L69.865 70.3491ZM11.756 68.0001V30.5531H16.986V68.0001H11.756ZM26.167 35.4191V63.1401H19.33V35.4191H26.167ZM19.33 33.0751V30.5531H26.167V33.0751H19.33ZM26.167 65.4841V68.0001H19.33V65.4831L26.167 65.4841ZM28.511 68.0001V30.5531H33.741V68.0001H28.511ZM42.922 35.4191V63.1401H36.085V35.4191H42.922ZM36.085 33.0751V30.5531H42.922V33.0751H36.085ZM42.922 65.4841V68.0001H36.085V65.4831L42.922 65.4841ZM45.266 68.0001V30.5531H50.5V68.0001H45.266ZM59.677 35.4191V63.1401H52.84V35.4191H59.677ZM52.84 33.0751V30.5531H59.677V33.0751H52.84ZM59.677 65.4841V68.0001H52.84V65.4831L59.677 65.4841ZM74.709 27.5841C74.7069 27.7503 74.64 27.9091 74.5225 28.0266C74.405 28.1441 74.2462 28.211 74.08 28.2131H4.92701C4.76083 28.211 4.60205 28.1441 4.48453 28.0266C4.36702 27.9091 4.30008 27.7503 4.29801 27.5841V25.7281H74.709V27.5811V27.5841ZM2.34801 21.3841L38.731 2.5311C38.9696 2.40773 39.2344 2.34334 39.503 2.34334C39.7716 2.34334 40.0364 2.40773 40.275 2.5311L76.659 21.3781V23.3841H2.34801V21.3781V21.3841Z" fill="#FFB352"/>
<path d="M39.503 20.4801C40.6426 20.4801 41.7566 20.1421 42.7042 19.509C43.6517 18.8758 44.3903 17.9759 44.8264 16.9231C45.2625 15.8702 45.3766 14.7117 45.1543 13.5939C44.9319 12.4762 44.3831 11.4495 43.5773 10.6437C42.7715 9.83788 41.7448 9.2891 40.6271 9.06677C39.5094 8.84444 38.3508 8.95855 37.2979 9.39466C36.2451 9.83078 35.3452 10.5693 34.7121 11.5169C34.0789 12.4644 33.741 13.5784 33.741 14.7181C33.7428 16.2457 34.3505 17.7102 35.4307 18.7904C36.5108 19.8705 37.9754 20.4782 39.503 20.4801ZM39.503 11.2991C40.179 11.2991 40.8398 11.4995 41.4019 11.8751C41.964 12.2507 42.4021 12.7845 42.6608 13.409C42.9195 14.0336 42.9872 14.7208 42.8553 15.3839C42.7234 16.0469 42.3979 16.6559 41.9199 17.1339C41.4418 17.612 40.8328 17.9375 40.1698 18.0694C39.5068 18.2013 38.8195 18.1336 38.195 17.8749C37.5704 17.6162 37.0366 17.1781 36.661 16.616C36.2854 16.0539 36.085 15.3931 36.085 14.7171C36.0863 13.811 36.4469 12.9425 37.0876 12.302C37.7283 11.6614 38.597 11.3011 39.503 11.3001V11.2991Z" fill="#FFB352"/>
</svg>
