<svg xmlns="http://www.w3.org/2000/svg" version="1.1" xmlnsxlink="http://www.w3.org/1999/xlink" xmlnssvgjs="http://svgjs.com/svgjs" x="0" y="0" viewBox="0 0 512 512" style="enable-background:new 0 0 512 512" xml:space="preserve"><g><path xmlns="http://www.w3.org/2000/svg" d="m0 107.081a16 16 0 0 1 16-16h480a16 16 0 0 1 0 32h-480a16 16 0 0 1 -16-16zm496 132.919h-480a16 16 0 0 0 0 32h480a16 16 0 0 0 0-32zm-240 148.919h-240a16 16 0 0 0 0 32h240a16 16 0 0 0 0-32z" fill="currentColor" data-original="#000000"/></g></svg>